<svg xmlns="http://www.w3.org/2000/svg" width="40" height="40" viewBox="0 0 40 40">
    <g fill="none" fill-rule="evenodd">
        <path fill="#FF5700" d="M0 0h40v40H0z"/>
        <path fill="#FFF" d="M21.956 22.535c-.712 0-1.346-.555-1.346-1.268S21.244 20 21.956 20c.713 0 1.268.634 1.268 1.267 0 .634-.555 1.268-1.268 1.268m.317 2.455c-.633.634-1.663.95-3.09.95-1.425 0-2.454-.316-3.088-.95-.238-.238-.238-.554 0-.713.238-.237.555-.237.713 0 .475.475 1.267.713 2.376.713 1.11 0 1.9-.238 2.376-.713.238-.237.555-.237.713 0 .16.238.16.555 0 .713m-7.287-3.723c0-.713.634-1.267 1.267-1.267.713 0 1.268.634 1.268 1.267 0 .634-.554 1.268-1.267 1.268-.633 0-1.267-.555-1.267-1.268m10.456-8.237c.475 0 .87.396.87.87 0 .476-.395.872-.87.872-.476 0-.872-.396-.872-.87 0-.476.396-.872.872-.872m3.168 6.812c0-1.268-1.03-2.297-2.297-2.297-.555 0-1.03.158-1.426.475-1.426-.87-3.168-1.426-5.07-1.505l.95-3.09 2.694.634c.08.95.873 1.742 1.902 1.742 1.03 0 1.9-.87 1.9-1.9 0-1.03-.87-1.902-1.9-1.902-.712 0-1.346.396-1.663 1.03l-3.17-.713c-.237-.08-.554.08-.633.317l-1.188 3.88c-1.98.08-3.96.555-5.387 1.506-.396-.317-.872-.475-1.426-.475-1.267 0-2.297 1.03-2.297 2.297 0 .792.396 1.505.95 1.9v.555c0 1.584.95 3.01 2.614 4.12C14.75 27.446 16.887 28 19.104 28c2.22 0 4.357-.554 5.942-1.584 1.663-1.11 2.613-2.535 2.613-4.12v-.474c.554-.475.95-1.188.95-1.98"/>
    </g>
</svg>
