<svg xmlns="http://www.w3.org/2000/svg" width="40" height="40" viewBox="0 0 40 40">
    <g fill="none" fill-rule="evenodd">
        <path fill="#1DA1F2" d="M0 0h40v40H0z"/>
        <path fill="#FFF" d="M29.204 14.802c-.705.313-1.41.55-2.194.627.784-.47 1.41-1.255 1.724-2.117-.783.47-1.567.784-2.43.94C25.6 13.47 24.582 13 23.485 13c-2.115 0-3.84 1.724-3.84 3.84 0 .313 0 .626.08.86-3.29-.156-6.112-1.723-7.992-4.073-.392.627-.548 1.253-.548 1.96 0 1.33.705 2.506 1.723 3.21-.627 0-1.253-.156-1.723-.47v.08c0 1.88 1.33 3.447 3.055 3.76-.314.078-.628.157-1.02.157-.234 0-.47 0-.705-.08.47 1.568 1.88 2.665 3.605 2.665-1.332 1.018-2.978 1.645-4.78 1.645-.313 0-.627 0-.94-.08 1.724 1.098 3.76 1.725 5.876 1.725 7.13 0 10.97-5.876 10.97-10.97v-.47c.783-.548 1.41-1.253 1.958-1.958"/>
    </g>
</svg>
